<svg xmlns="http://www.w3.org/2000/svg" xmlns:xlink="http://www.w3.org/1999/xlink" version="1.1" x="0px" y="0px" viewBox="0 0 24 30" style="enable-background:new 0 0 24 24;" xml:space="preserve"><g><path d="M18.939,3.726h-1.601V2.125H16.27v1.601H7.73V2.125H6.662v1.601H5.061c-1.472,0-2.669,1.197-2.669,2.669v12.811   c0,1.472,1.197,2.669,2.669,2.669h13.878c1.472,0,2.669-1.197,2.669-2.669V9.064V7.997V6.395   C21.608,4.924,20.411,3.726,18.939,3.726z M20.541,19.206c0,0.883-0.718,1.601-1.601,1.601H5.061c-0.883,0-1.601-0.718-1.601-1.601   V9.064h17.081V19.206z M20.541,7.997H3.459V6.395c0-0.883,0.718-1.601,1.601-1.601h1.601v1.068H7.73V4.794h8.541v1.068h1.068V4.794   h1.601c0.883,0,1.601,0.718,1.601,1.601V7.997z"/><path d="M10.932,14.402h2.135c0.589,0,1.068-0.479,1.068-1.068v-2.135c0-0.589-0.479-1.068-1.068-1.068h-2.135   c-0.589,0-1.068,0.479-1.068,1.068v2.135C9.865,13.923,10.344,14.402,10.932,14.402z M10.932,11.199h2.135l0.001,2.135h-2.136   V11.199z"/><path d="M16.27,14.402h2.135c0.589,0,1.068-0.479,1.068-1.068v-2.135c0-0.589-0.479-1.068-1.068-1.068H16.27   c-0.589,0-1.068,0.479-1.068,1.068v2.135C15.203,13.923,15.682,14.402,16.27,14.402z M16.27,11.199h2.135l0.001,2.135H16.27V11.199   z"/><path d="M5.595,19.74H7.73c0.589,0,1.068-0.479,1.068-1.068v-2.135c0-0.589-0.479-1.068-1.068-1.068H5.595   c-0.589,0-1.068,0.479-1.068,1.068v2.135C4.527,19.261,5.006,19.74,5.595,19.74z M5.595,16.537H7.73l0.001,2.135H5.595V16.537z"/><path d="M10.932,19.74h2.135c0.589,0,1.068-0.479,1.068-1.068v-2.135c0-0.589-0.479-1.068-1.068-1.068h-2.135   c-0.589,0-1.068,0.479-1.068,1.068v2.135C9.865,19.261,10.344,19.74,10.932,19.74z M10.932,16.537h2.135l0.001,2.135h-2.136V16.537   z"/><path d="M16.27,19.74h2.135c0.589,0,1.068-0.479,1.068-1.068v-2.135c0-0.589-0.479-1.068-1.068-1.068H16.27   c-0.589,0-1.068,0.479-1.068,1.068v2.135C15.203,19.261,15.682,19.74,16.27,19.74z M16.27,16.537h2.135l0.001,2.135H16.27V16.537z"/></g><text x="0" y="39" fill="#000000" font-size="5px" font-weight="bold" font-family="'Helvetica Neue', Helvetica, Arial-Unicode, Arial, Sans-serif">Created by Storm Icons</text><text x="0" y="44" fill="#000000" font-size="5px" font-weight="bold" font-family="'Helvetica Neue', Helvetica, Arial-Unicode, Arial, Sans-serif">from the Noun Project</text></svg>